<svg width="34" height="34" viewBox="0 0 34 34" fill="none" xmlns="http://www.w3.org/2000/svg">
<path d="M33 17C33 25.8366 25.8366 33 17 33C8.16344 33 1 25.8366 1 17C1 8.16344 8.16344 1 17 1C25.8366 1 33 8.16344 33 17Z" fill="#FFE85C"/>
<path d="M16.9983 25V25.0703M13 12.0755C13 9.82468 14.7909 8 17 8C19.2091 8 21 9.82468 21 12.0755C21 14.3264 19.2091 16.1511 17 16.1511C17 16.1511 16.9983 17.3675 16.9983 18.8681M33 17C33 25.8366 25.8366 33 17 33C8.16344 33 1 25.8366 1 17C1 8.16344 8.16344 1 17 1C25.8366 1 33 8.16344 33 17Z" stroke="black" stroke-width="2" stroke-linecap="round" stroke-linejoin="round"/>
</svg>
