<svg width="96" height="96" viewBox="0 0 96 96" fill="none" xmlns="http://www.w3.org/2000/svg">
<g filter="url(#filter0_d_78_53)">
<path d="M80 44C80 61.6731 65.6731 76 48 76C30.3269 76 16 61.6731 16 44C16 26.3269 30.3269 12 48 12C65.6731 12 80 26.3269 80 44Z" fill="#FF5C5F"/>
<path d="M60.0208 33.3934C60.4113 33.0029 60.4113 32.3697 60.0208 31.9792C59.6303 31.5887 58.9971 31.5887 58.6066 31.9792L59.3137 32.6863L60.0208 33.3934ZM35.9792 54.6066C35.5887 54.9971 35.5887 55.6303 35.9792 56.0208C36.3697 56.4113 37.0029 56.4113 37.3934 56.0208L36.6863 55.3137L35.9792 54.6066ZM58.6066 56.0208C58.9971 56.4113 59.6303 56.4113 60.0208 56.0208C60.4113 55.6303 60.4113 54.9971 60.0208 54.6066L59.3137 55.3137L58.6066 56.0208ZM37.3934 31.9792C37.0029 31.5887 36.3697 31.5887 35.9792 31.9792C35.5887 32.3697 35.5887 33.0029 35.9792 33.3934L36.6863 32.6863L37.3934 31.9792ZM80 44H79C79 61.1208 65.1208 75 48 75V76V77C66.2254 77 81 62.2254 81 44H80ZM48 76V75C30.8792 75 17 61.1208 17 44H16H15C15 62.2254 29.7746 77 48 77V76ZM16 44H17C17 26.8792 30.8792 13 48 13V12V11C29.7746 11 15 25.7746 15 44H16ZM48 12V13C65.1208 13 79 26.8792 79 44H80H81C81 25.7746 66.2254 11 48 11V12ZM59.3137 32.6863L58.6066 31.9792L47.2929 43.2929L48 44L48.7071 44.7071L60.0208 33.3934L59.3137 32.6863ZM48 44L47.2929 43.2929L35.9792 54.6066L36.6863 55.3137L37.3934 56.0208L48.7071 44.7071L48 44ZM59.3137 55.3137L60.0208 54.6066L48.7071 43.2929L48 44L47.2929 44.7071L58.6066 56.0208L59.3137 55.3137ZM48 44L48.7071 43.2929L37.3934 31.9792L36.6863 32.6863L35.9792 33.3934L47.2929 44.7071L48 44Z" fill="black"/>
</g>
<defs>
<filter id="filter0_d_78_53" x="0" y="0" width="96" height="96" filterUnits="userSpaceOnUse" color-interpolation-filters="sRGB">
<feFlood flood-opacity="0" result="BackgroundImageFix"/>
<feColorMatrix in="SourceAlpha" type="matrix" values="0 0 0 0 0 0 0 0 0 0 0 0 0 0 0 0 0 0 127 0" result="hardAlpha"/>
<feOffset dy="4"/>
<feGaussianBlur stdDeviation="7.5"/>
<feComposite in2="hardAlpha" operator="out"/>
<feColorMatrix type="matrix" values="0 0 0 0 1 0 0 0 0 0.360784 0 0 0 0 0.371438 0 0 0 0.75 0"/>
<feBlend mode="normal" in2="BackgroundImageFix" result="effect1_dropShadow_78_53"/>
<feBlend mode="normal" in="SourceGraphic" in2="effect1_dropShadow_78_53" result="shape"/>
</filter>
</defs>
</svg>
